# xmcd CD database file
#
# Track frame offsets:
#	170
#	42460
#	91076
#	124460
#	190057
#	216119
#	249293
#
# Disc length: 3776 seconds
#
# Revision: 1
# Processed by: cddbd v1.5.1PL0 Copyright (c) Steve Scherf et al.
# Submitted via: CDex 1.51
#
DISCID=5c0ebe07
DTITLE=The Winners - Live at the Dolder Grand Hotel Zurich
DYEAR=2000
DGENRE=Jazz
TTITLE0=Autumn Leaves
TTITLE1=Invitation
TTITLE2=In Your Own Sweet Way
TTITLE3=My Foolish Heart
TTITLE4=Summertime
TTITLE5=The Days of Wine and Roses
TTITLE6=If I Should Lose You
EXTD=YEAR: 2000
EXTT0=
EXTT1=
EXTT2=
EXTT3=
EXTT4=
EXTT5=
EXTT6=
PLAYORDER=
